{
    "asset" : {
        "generator" : "Khronos glTF Blender I/O v1.7.33",
        "version" : "2.0"
    },
    "extensionsUsed" : [
        "KHR_materials_transmission"
    ],
    "scene" : 0,
    "scenes" : [
        {
            "extras" : {
                "vs" : {
                    "export_list" : [
                        {
                            "name" : "Collection.dmx",
                            "collection" : {
                                "name" : "Collection",
                                "type" : "Collection"
                            },
                            "ob_type" : "COLLECTION",
                            "icon" : "GROUP"
                        }
                    ]
                }
            },
            "name" : "Scene",
            "nodes" : [
                1,
                2,
                3,
                4
            ]
        }
    ],
    "nodes" : [
        {
            "name" : "Camera_Orientation",
            "rotation" : [
                -0.7071067690849304,
                0,
                0,
                0.7071067690849304
            ]
        },
        {
            "children" : [
                0
            ],
            "name" : "Camera",
            "rotation" : [
                0.4862017035484314,
                0.4995761811733246,
                -0.4159315824508667,
                0.5839798450469971
            ],
            "translation" : [
                1.5729031562805176,
                2.3375349044799805,
                0.6280767321586609
            ]
        },
        {
            "mesh" : 0,
            "name" : "Cube"
        },
        {
            "mesh" : 1,
            "name" : "Plane",
            "rotation" : [
                0,
                0,
                -0.9923920631408691,
                -0.12311771512031555
            ],
            "translation" : [
                0.2531105577945709,
                2.542240619659424,
                1.660731554031372
            ]
        },
        {
            "mesh" : 2,
            "name" : "Suzanne",
            "rotation" : [
                -0.14625680446624756,
                0.7708558440208435,
                -0.12740527093410492,
                0.6067605018615723
            ],
            "scale" : [
                0.4799104332923889,
                0.4799104332923889,
                0.4799104928970337
            ],
            "translation" : [
                0.2043318748474121,
                1.5061752796173096,
                0.1250056028366089
            ]
        }
    ],
    "materials" : [
        {
            "doubleSided" : true,
            "name" : "Material.001",
            "pbrMetallicRoughness" : {
                "baseColorFactor" : [
                    0.5814617872238159,
                    0.5814617872238159,
                    0.5814617872238159,
                    1
                ],
                "metallicFactor" : 0,
                "roughnessFactor" : 0.5
            }
        },
        {
            "doubleSided" : true,
            "name" : "Material.002",
            "pbrMetallicRoughness" : {
                "baseColorFactor" : [
                    0.800000011920929,
                    0.800000011920929,
                    0.800000011920929,
                    1
                ],
                "roughnessFactor" : 0
            }
        },
        {
            "doubleSided" : true,
            "name" : "Material.003",
            "pbrMetallicRoughness" : {
                "baseColorFactor" : [
                    0.8000000715255737,
                    0.024301638826727867,
                    0.07167316973209381,
                    1
                ],
                "metallicFactor" : 0,
                "roughnessFactor" : 0.5
            }
        },
        {
            "doubleSided" : true,
            "name" : "Material.004",
            "pbrMetallicRoughness" : {
                "baseColorFactor" : [
                    0.09620825201272964,
                    0.48689258098602295,
                    0.17211735248565674,
                    1
                ],
                "metallicFactor" : 0,
                "roughnessFactor" : 0.5
            }
        },
        {
            "doubleSided" : true,
            "extensions" : {
                "KHR_materials_transmission" : {
                    "transmissionFactor" : 0.8267716765403748
                }
            },
            "name" : "Material.010",
            "pbrMetallicRoughness" : {
                "baseColorFactor" : [
                    0.17943508923053741,
                    0.6265707015991211,
                    0.8000000715255737,
                    1
                ],
                "metallicFactor" : 0,
                "roughnessFactor" : 0.20078739523887634
            }
        },
        {
            "doubleSided" : true,
            "emissiveFactor" : [
                1,
                1,
                1
            ],
            "name" : "Material.012",
            "pbrMetallicRoughness" : {
                "baseColorFactor" : [
                    0.800000011920929,
                    0.800000011920929,
                    0.800000011920929,
                    1
                ],
                "metallicFactor" : 0,
                "roughnessFactor" : 0.5
            }
        }
    ],
    "meshes" : [
        {
            "name" : "Cube.001",
            "primitives" : [
                {
                    "attributes" : {
                        "POSITION" : 0,
                        "NORMAL" : 1,
                        "TEXCOORD_0" : 2
                    },
                    "indices" : 3,
                    "material" : 0
                },
                {
                    "attributes" : {
                        "POSITION" : 4,
                        "NORMAL" : 5,
                        "TEXCOORD_0" : 6
                    },
                    "indices" : 7,
                    "material" : 1
                },
                {
                    "attributes" : {
                        "POSITION" : 8,
                        "NORMAL" : 9,
                        "TEXCOORD_0" : 10
                    },
                    "indices" : 11,
                    "material" : 2
                },
                {
                    "attributes" : {
                        "POSITION" : 12,
                        "NORMAL" : 13,
                        "TEXCOORD_0" : 14
                    },
                    "indices" : 15,
                    "material" : 3
                }
            ]
        },
        {
            "name" : "Plane",
            "primitives" : [
                {
                    "attributes" : {
                        "POSITION" : 16,
                        "NORMAL" : 17,
                        "TEXCOORD_0" : 18
                    },
                    "indices" : 19,
                    "material" : 4
                }
            ]
        },
        {
            "name" : "Suzanne",
            "primitives" : [
                {
                    "attributes" : {
                        "POSITION" : 20,
                        "NORMAL" : 21,
                        "TEXCOORD_0" : 22
                    },
                    "indices" : 23,
                    "material" : 5
                }
            ]
        }
    ],
    "accessors" : [
        {
            "bufferView" : 0,
            "componentType" : 5126,
            "count" : 36,
            "max" : [
                1.72733473777771,
                3.408015251159668,
                1.7731620073318481
            ],
            "min" : [
                -1.72733473777771,
                -0.005605369806289673,
                -1.7731620073318481
            ],
            "type" : "VEC3"
        },
        {
            "bufferView" : 1,
            "componentType" : 5126,
            "count" : 36,
            "type" : "VEC3"
        },
        {
            "bufferView" : 2,
            "componentType" : 5126,
            "count" : 36,
            "type" : "VEC2"
        },
        {
            "bufferView" : 3,
            "componentType" : 5123,
            "count" : 54,
            "type" : "SCALAR"
        },
        {
            "bufferView" : 4,
            "componentType" : 5126,
            "count" : 24,
            "max" : [
                0.03301137685775757,
                1.7336571216583252,
                1.4010283946990967
            ],
            "min" : [
                -1.1761069297790527,
                -0.025595471262931824,
                0.19191014766693115
            ],
            "type" : "VEC3"
        },
        {
            "bufferView" : 5,
            "componentType" : 5126,
            "count" : 24,
            "type" : "VEC3"
        },
        {
            "bufferView" : 6,
            "componentType" : 5126,
            "count" : 24,
            "type" : "VEC2"
        },
        {
            "bufferView" : 7,
            "componentType" : 5123,
            "count" : 36,
            "type" : "SCALAR"
        },
        {
            "bufferView" : 8,
            "componentType" : 5126,
            "count" : 4,
            "max" : [
                1.72733473777771,
                3.408015251159668,
                1.7731620073318481
            ],
            "min" : [
                -1.72733473777771,
                0.0035048723220825195,
                1.7731620073318481
            ],
            "type" : "VEC3"
        },
        {
            "bufferView" : 9,
            "componentType" : 5126,
            "count" : 4,
            "type" : "VEC3"
        },
        {
            "bufferView" : 10,
            "componentType" : 5126,
            "count" : 4,
            "type" : "VEC2"
        },
        {
            "bufferView" : 11,
            "componentType" : 5123,
            "count" : 6,
            "type" : "SCALAR"
        },
        {
            "bufferView" : 12,
            "componentType" : 5126,
            "count" : 4,
            "max" : [
                1.72733473777771,
                3.408015251159668,
                -1.7731620073318481
            ],
            "min" : [
                -1.72733473777771,
                0.0035048723220825195,
                -1.7731620073318481
            ],
            "type" : "VEC3"
        },
        {
            "bufferView" : 13,
            "componentType" : 5126,
            "count" : 4,
            "type" : "VEC3"
        },
        {
            "bufferView" : 14,
            "componentType" : 5126,
            "count" : 4,
            "type" : "VEC2"
        },
        {
            "bufferView" : 15,
            "componentType" : 5123,
            "count" : 6,
            "type" : "SCALAR"
        },
        {
            "bufferView" : 16,
            "componentType" : 5126,
            "count" : 6481,
            "max" : [
                1.0000001192092896,
                1.8645687103271484,
                -0.30008551478385925
            ],
            "min" : [
                -1,
                0.11886080354452133,
                -1.887671947479248
            ],
            "type" : "VEC3"
        },
        {
            "bufferView" : 17,
            "componentType" : 5126,
            "count" : 6481,
            "type" : "VEC3"
        },
        {
            "bufferView" : 18,
            "componentType" : 5126,
            "count" : 6481,
            "type" : "VEC2"
        },
        {
            "bufferView" : 19,
            "componentType" : 5123,
            "count" : 36504,
            "type" : "SCALAR"
        },
        {
            "bufferView" : 20,
            "componentType" : 5126,
            "count" : 1966,
            "max" : [
                1.3671875,
                0.984375,
                0.8515625
            ],
            "min" : [
                -1.3671875,
                -0.984375,
                -0.8515625
            ],
            "type" : "VEC3"
        },
        {
            "bufferView" : 21,
            "componentType" : 5126,
            "count" : 1966,
            "type" : "VEC3"
        },
        {
            "bufferView" : 22,
            "componentType" : 5126,
            "count" : 1966,
            "type" : "VEC2"
        },
        {
            "bufferView" : 23,
            "componentType" : 5123,
            "count" : 2904,
            "type" : "SCALAR"
        }
    ],
    "bufferViews" : [
        {
            "buffer" : 0,
            "byteLength" : 432,
            "byteOffset" : 0
        },
        {
            "buffer" : 0,
            "byteLength" : 432,
            "byteOffset" : 432
        },
        {
            "buffer" : 0,
            "byteLength" : 288,
            "byteOffset" : 864
        },
        {
            "buffer" : 0,
            "byteLength" : 108,
            "byteOffset" : 1152
        },
        {
            "buffer" : 0,
            "byteLength" : 288,
            "byteOffset" : 1260
        },
        {
            "buffer" : 0,
            "byteLength" : 288,
            "byteOffset" : 1548
        },
        {
            "buffer" : 0,
            "byteLength" : 192,
            "byteOffset" : 1836
        },
        {
            "buffer" : 0,
            "byteLength" : 72,
            "byteOffset" : 2028
        },
        {
            "buffer" : 0,
            "byteLength" : 48,
            "byteOffset" : 2100
        },
        {
            "buffer" : 0,
            "byteLength" : 48,
            "byteOffset" : 2148
        },
        {
            "buffer" : 0,
            "byteLength" : 32,
            "byteOffset" : 2196
        },
        {
            "buffer" : 0,
            "byteLength" : 12,
            "byteOffset" : 2228
        },
        {
            "buffer" : 0,
            "byteLength" : 48,
            "byteOffset" : 2240
        },
        {
            "buffer" : 0,
            "byteLength" : 48,
            "byteOffset" : 2288
        },
        {
            "buffer" : 0,
            "byteLength" : 32,
            "byteOffset" : 2336
        },
        {
            "buffer" : 0,
            "byteLength" : 12,
            "byteOffset" : 2368
        },
        {
            "buffer" : 0,
            "byteLength" : 77772,
            "byteOffset" : 2380
        },
        {
            "buffer" : 0,
            "byteLength" : 77772,
            "byteOffset" : 80152
        },
        {
            "buffer" : 0,
            "byteLength" : 51848,
            "byteOffset" : 157924
        },
        {
            "buffer" : 0,
            "byteLength" : 73008,
            "byteOffset" : 209772
        },
        {
            "buffer" : 0,
            "byteLength" : 23592,
            "byteOffset" : 282780
        },
        {
            "buffer" : 0,
            "byteLength" : 23592,
            "byteOffset" : 306372
        },
        {
            "buffer" : 0,
            "byteLength" : 15728,
            "byteOffset" : 329964
        },
        {
            "buffer" : 0,
            "byteLength" : 5808,
            "byteOffset" : 345692
        }
    ],
    "buffers" : [
        {
            "byteLength" : 351500,
            "uri" : "data:application/octet-stream;base64,"
        }
    ]
}
